HIERARCHY
ROOT Hips
{
	OFFSET 0.00000 0.00000 0.00000
	CHANNELS 6 Xposition Yposition Zposition Zrotation Yrotation Xrotation 
	JOINT LHipJoint
	{
		OFFSET 0 0 0
		CHANNELS 3 Zrotation Yrotation Xrotation
		JOINT LeftUpLeg
		{
			OFFSET 1.39187 -1.60231 0.69152
			CHANNELS 3 Zrotation Yrotation Xrotation
			JOINT LeftLeg
			{
				OFFSET 2.43314 -6.68499 0.00000
				CHANNELS 3 Zrotation Yrotation Xrotation
				JOINT LeftFoot
				{
					OFFSET 2.32059 -6.37578 0.00000
					CHANNELS 3 Zrotation Yrotation Xrotation
					JOINT LeftToeBase
					{
						OFFSET 0.23021 -0.63250 1.71305
						CHANNELS 3 Zrotation Yrotation Xrotation
						End Site
						{
							OFFSET 0.00000 -0.00000 0.91647
						}
					}
				}
			}
		}
	}
	JOINT RHipJoint
	{
		OFFSET 0 0 0
		CHANNELS 3 Zrotation Yrotation Xrotation
		JOINT RightUpLeg
		{
			OFFSET -1.19407 -1.60231 0.69152
			CHANNELS 3 Zrotation Yrotation Xrotation
			JOINT RightLeg
			{
				OFFSET -2.44411 -6.71513 0.00000
				CHANNELS 3 Zrotation Yrotation Xrotation
				JOINT RightFoot
				{
					OFFSET -2.31924 -6.37207 0.00000
					CHANNELS 3 Zrotation Yrotation Xrotation
					JOINT RightToeBase
					{
						OFFSET -0.19473 -0.53502 1.87724
						CHANNELS 3 Zrotation Yrotation Xrotation
						End Site
						{
							OFFSET -0.00000 -0.00000 0.98293
						}
					}
				}
			}
		}
	}
	JOINT LowerBack
	{
		OFFSET 0 0 0
		CHANNELS 3 Zrotation Yrotation Xrotation
		JOINT Spine
		{
			OFFSET -0.01120 1.87307 0.09613
			CHANNELS 3 Zrotation Yrotation Xrotation
			JOINT Spine1
			{
				OFFSET 0.01099 1.87818 0.04834
				CHANNELS 3 Zrotation Yrotation Xrotation
				JOINT Neck
				{
					OFFSET 0 0 0
					CHANNELS 3 Zrotation Yrotation Xrotation
					JOINT Neck1
					{
						OFFSET 0.01702 1.40324 -0.12579
						CHANNELS 3 Zrotation Yrotation Xrotation
						JOINT Head
						{
							OFFSET -0.04239 1.38587 -0.01614
							CHANNELS 3 Zrotation Yrotation Xrotation
							End Site
							{
								OFFSET -0.02510 1.47031 -0.00154
							}
						}
					}
				}
				JOINT LeftShoulder
				{
					OFFSET 0 0 0
					CHANNELS 3 Zrotation Yrotation Xrotation
					JOINT LeftArm
					{
						OFFSET 2.95699 0.62343 0.11653
						CHANNELS 3 Zrotation Yrotation Xrotation
						JOINT LeftForeArm
						{
							OFFSET 4.68382 -0.00000 -0.00000
							CHANNELS 3 Zrotation Yrotation Xrotation
							JOINT LeftHand
							{
								OFFSET 2.98124 -0.00000 -0.00000
								CHANNELS 3 Zrotation Yrotation Xrotation
								JOINT LeftFingerBase
								{
									OFFSET 0 0 0
									CHANNELS 3 Zrotation Yrotation Xrotation
									JOINT LeftHandIndex1
									{
										OFFSET 0.70759 -0.00000 0.00000
										CHANNELS 3 Zrotation Yrotation Xrotation
										End Site
										{
											OFFSET 0.57048 -0.00000 0.00000
										}
									}
								}
								JOINT LThumb
								{
									OFFSET 0 0 0
									CHANNELS 3 Zrotation Yrotation Xrotation
									End Site
									{
										OFFSET 0.57919 -0.00000 0.57919
									}
								}
							}
						}
					}
				}
				JOINT RightShoulder
				{
					OFFSET 0 0 0
					CHANNELS 3 Zrotation Yrotation Xrotation
					JOINT RightArm
					{
						OFFSET -2.99027 0.88714 -0.02793
						CHANNELS 3 Zrotation Yrotation Xrotation
						JOINT RightForeArm
						{
							OFFSET -4.75876 -0.00000 -0.00000
							CHANNELS 3 Zrotation Yrotation Xrotation
							JOINT RightHand
							{
								OFFSET -2.93293 -0.00000 -0.00000
								CHANNELS 3 Zrotation Yrotation Xrotation
								JOINT RightFingerBase
								{
									OFFSET 0 0 0
									CHANNELS 3 Zrotation Yrotation Xrotation
									JOINT RightHandIndex1
									{
										OFFSET -0.83175 -0.00000 0.00000
										CHANNELS 3 Zrotation Yrotation Xrotation
										End Site
										{
											OFFSET -0.67058 -0.00000 0.00000
										}
									}
								}
								JOINT RThumb
								{
									OFFSET 0 0 0
									CHANNELS 3 Zrotation Yrotation Xrotation
									End Site
									{
										OFFSET -0.68082 -0.00000 0.68082
									}
								}
							}
						}
					}
				}
			}
		}
	}
}
MOTION
Frames: 13
Frame Time: .0083333
33.4276 16.8713 -10.0410 180.7230 67.3738 -152.7120 0.0000 0.0000 0.0000 -10.5781 -20.9730 -37.2929 1.6412 8.0749 22.9418 -0.2896 -19.8192 -11.3832 0.0150 0.7898 2.1705 0.0000 0.0000 0.0000 22.5788 9.1933 -7.8014 -1.0786 -6.6015 18.5400 0.0842 -8.0588 3.6773 -0.5625 4.8037 -13.3494 -5.8130 1.2024 -13.7275 -0.6673 2.6900 -4.8266 2.9941 1.5061 2.3674 -6.3166 -0.3893 3.4437 7.9252 1.0171 -20.0547 3.5271 0.6378 -6.6856 -0.0000 0.0000 0.0000 66.8180 -58.4115 -75.7042 27.8513 -38.9790 -10.0300 -0.0000 -0.0000 17.7435 34.0636 18.9079 12.3581 -7.1250 0.0000 -0.0000 6.0757 52.3433 1.1015 -0.0000 0.0000 0.0000 -42.9837 63.2010 -64.4041 -43.2403 49.8767 -20.8843 0.0000 -0.0000 -1.6555 -20.7032 14.8232 -5.5227 7.1250 -0.0000 -0.0000 4.6313 -14.2197 3.3630
33.4524 16.8607 -10.0227 180.9310 67.2732 -152.2910 0.0000 0.0000 0.0000 -10.2922 -20.9653 -37.6772 1.6631 8.1260 23.0975 -0.2938 -19.8182 -11.3422 0.0183 0.8746 2.4038 0.0000 0.0000 0.0000 22.7794 9.2217 -8.0236 -1.0721 -6.5822 18.4832 0.0836 -8.0138 3.6465 -0.6225 5.0490 -14.0482 -6.0016 1.0529 -13.9623 -0.6385 2.5397 -4.8938 3.1161 1.4363 2.4266 -6.7376 -0.3617 3.2214 8.5867 1.1458 -19.9023 3.8044 0.6876 -6.6063 0.0000 -0.0000 0.0000 66.9283 -58.3258 -75.6629 27.6095 -38.7543 -9.8783 -0.0000 -0.0000 17.9694 34.3908 19.1767 12.6716 -7.1250 0.0000 -0.0000 6.4034 52.7207 1.2206 0.0000 -0.0000 0.0000 -43.3617 63.3676 -65.2484 -43.3922 49.9561 -21.0006 0.0000 -0.0000 -2.4522 -19.5743 15.2373 -5.3389 7.1250 -0.0000 -0.0000 5.4130 -13.9069 3.9714
33.4393 16.8627 -10.0302 181.3670 67.1852 -151.7570 0.0000 0.0000 0.0000 -10.0634 -21.0382 -37.9318 1.6856 8.1779 23.2558 -0.2866 -19.7217 -11.3271 0.0147 0.7820 2.1493 0.0000 0.0000 0.0000 22.9461 9.9710 -7.8441 -1.0631 -6.5553 18.4045 0.1108 -8.7329 3.6850 -0.6922 5.3185 -14.8193 -5.5993 1.0888 -13.8128 -0.6384 2.5186 -4.8744 2.8817 1.4219 2.3877 -5.9192 -0.2622 3.2958 7.7287 1.2354 -20.2130 3.3817 0.7400 -6.7262 0.0000 0.0000 0.0000 67.1025 -58.0565 -75.8318 27.4816 -38.6346 -9.7983 -0.0000 -0.0000 18.3003 33.7408 19.2607 12.4256 -7.1250 0.0000 -0.0000 5.7016 52.6835 1.0809 0.0000 0.0000 0.0000 -44.0673 63.3101 -66.0667 -43.4397 49.9808 -21.0369 0.0000 -0.0000 -2.4063 -19.8220 14.1350 -5.0306 7.1250 -0.0000 -0.0000 5.2025 -15.0362 3.6902
33.4520 16.8598 -10.0168 181.4000 67.2142 -151.5920 0.0000 0.0000 0.0000 -9.9154 -21.0400 -38.1867 1.7056 8.2240 23.3965 -0.2913 -19.7035 -11.2675 0.0132 0.7410 2.0365 0.0000 0.0000 0.0000 22.9623 9.2753 -8.2584 -1.0572 -6.5376 18.3525 0.0828 -7.9229 3.5759 -0.6601 5.1963 -14.4693 -5.8505 1.0624 -13.7953 -0.5993 2.5148 -4.8872 3.0621 1.4238 2.3512 -6.5017 -0.2418 3.3523 8.6809 1.4400 -20.5592 3.7870 0.8213 -6.8633 0.0000 0.0000 0.0000 67.3008 -57.9271 -76.2048 27.5378 -38.6873 -9.8334 -0.0000 -0.0000 18.2388 36.1210 19.7833 13.8745 -7.1250 0.0000 -0.0000 8.2452 53.7949 1.7923 0.0000 0.0000 0.0000 -44.4803 63.2607 -66.5088 -43.2505 49.8821 -20.8921 0.0000 -0.0000 -2.0770 -20.1253 13.8261 -5.0047 7.1250 -0.0000 -0.0000 4.9840 -15.3303 3.5024
33.4516 16.8594 -10.0139 181.5030 67.2279 -151.4370 0.0000 0.0000 0.0000 -9.8068 -21.0730 -38.3533 1.7257 8.2697 23.5362 -0.2970 -19.6425 -11.1600 0.0223 0.9638 2.6492 0.0000 0.0000 0.0000 23.0238 9.8881 -8.0187 -1.0503 -6.5170 18.2921 0.0950 -8.4520 3.7967 -0.6886 5.3052 -14.7813 -5.8911 1.1202 -13.5266 -0.5405 2.5743 -4.9743 3.1419 1.4646 2.1042 -6.3033 -0.3982 2.9311 8.2112 1.1207 -20.0813 3.6094 0.6887 -6.6098 0.0000 -0.0000 0.0000 67.4874 -57.8861 -76.8171 27.3172 -38.4800 -9.6959 -0.0000 -0.0000 18.7302 33.2455 18.4927 11.7455 -7.1250 0.0000 -0.0000 5.2487 51.7022 0.8683 0.0000 -0.0000 0.0000 -44.6938 63.1138 -66.4602 -42.7781 49.6324 -20.5316 0.0000 -0.0000 -1.7568 -20.6197 14.1945 -5.2715 7.1250 -0.0000 -0.0000 4.6604 -14.8916 3.3174
33.4501 16.8594 -10.0126 181.5790 67.2461 -151.2930 0.0000 0.0000 0.0000 -9.7259 -21.1052 -38.4856 1.7428 8.3084 23.6548 -0.2946 -19.5392 -11.0931 0.0312 1.1399 3.1338 0.0000 0.0000 0.0000 23.0588 10.4675 -7.8493 -1.0482 -6.5107 18.2736 0.1106 -8.9633 3.9354 -0.7128 5.3957 -15.0406 -5.8976 1.0186 -13.3873 -0.5383 2.4317 -5.0650 3.1199 1.4025 1.9468 -6.1312 -0.2147 2.6976 8.2510 1.3828 -19.7490 3.5703 0.8014 -6.4829 0.0000 0.0000 0.0000 66.8377 -57.5629 -75.6307 27.2483 -38.4150 -9.6530 -0.0000 -0.0000 17.9493 34.8181 19.0341 12.7796 -7.1250 0.0000 -0.0000 6.8715 52.6444 1.2976 0.0000 0.0000 0.0000 -45.5033 63.3336 -67.2421 -42.3863 49.4218 -20.2335 0.0000 -0.0000 -1.8049 -21.1035 14.3171 -5.4517 7.1250 -0.0000 -0.0000 4.3360 -14.7108 3.1018
33.4479 16.8584 -10.0114 181.6730 67.2388 -151.1130 0.0000 0.0000 0.0000 -9.6262 -21.1478 -38.6622 1.7607 8.3487 23.7783 -0.3007 -19.5001 -11.0004 0.0334 1.1804 3.2453 0.0000 0.0000 0.0000 23.0761 10.3631 -8.0270 -1.0485 -6.5115 18.2758 0.1043 -8.8080 3.9290 -0.6977 5.3395 -14.8795 -5.8626 0.9907 -13.3100 -0.5589 2.3859 -5.1064 3.0684 1.3833 1.8686 -5.8262 -0.1486 2.7184 7.9900 1.4701 -19.8775 3.4291 0.8431 -6.5335 -0.0000 0.0000 0.0000 66.9393 -57.3720 -75.7267 27.0791 -38.2546 -9.5481 -0.0000 -0.0000 17.8785 35.8756 19.2570 13.4158 -7.1250 0.0000 -0.0000 8.0009 53.1270 1.6077 -0.0000 0.0000 0.0000 -46.1542 63.3173 -67.9974 -42.1348 49.2850 -20.0427 0.0000 -0.0000 -1.9441 -21.1630 14.5642 -5.5602 7.1250 -0.0000 -0.0000 4.3071 -14.4430 3.1057
33.4334 16.8601 -10.0195 181.9540 67.2080 -150.8200 0.0000 0.0000 0.0000 -9.5235 -21.1847 -38.7693 1.7709 8.3716 23.8485 -0.3083 -19.4554 -10.8878 0.0424 1.3291 3.6549 0.0000 0.0000 0.0000 23.0848 8.9544 -8.7369 -1.0601 -6.5462 18.3777 0.0577 -7.2633 3.6235 -0.7134 5.3978 -15.0467 -5.5412 1.0632 -13.0658 -0.5805 2.4206 -5.0950 2.8612 1.3977 1.7616 -5.5446 -0.3907 2.9134 7.6854 1.1299 -20.2687 3.3092 0.6816 -6.6671 0.0000 -0.0000 0.0000 67.4697 -57.2537 -76.6540 26.8382 -38.0244 -9.3993 -0.0000 -0.0000 18.5874 36.0495 19.3765 13.5762 -7.1250 0.0000 -0.0000 8.1852 53.3040 1.6807 0.0000 -0.0000 0.0000 -46.6679 63.1241 -68.4102 -42.0818 49.2561 -20.0025 0.0000 -0.0000 -2.0743 -21.3271 13.9142 -5.3635 7.1250 -0.0000 -0.0000 4.1651 -15.1139 2.9429
33.4454 16.8537 -10.0082 181.9890 67.2828 -150.7450 0.0000 0.0000 0.0000 -9.4748 -21.0992 -38.8124 1.7682 8.3656 23.8301 -0.3018 -19.4189 -10.9182 0.0443 1.3588 3.7366 0.0000 0.0000 0.0000 23.0941 8.3248 -9.1402 -1.0814 -6.6097 18.5641 0.0485 -6.5551 3.2214 -0.7186 5.4169 -15.1017 -5.9003 1.0522 -13.2403 -0.4151 2.4514 -4.8816 3.2520 1.3983 2.0521 -6.1138 -0.3891 2.5166 8.1083 1.2125 -20.3785 3.5399 0.7519 -6.6381 0.0000 0.0000 0.0000 67.9344 -56.9279 -77.8002 26.6184 -37.8128 -9.2642 -0.0000 -0.0000 18.9479 34.8849 18.9101 12.7326 -7.1250 0.0000 -0.0000 6.9511 52.5143 1.2906 0.0000 0.0000 0.0000 -47.6253 62.7140 -69.0203 -42.1506 49.2936 -20.0546 0.0000 -0.0000 -2.2828 -21.0682 11.8730 -4.5317 7.1250 -0.0000 -0.0000 4.2655 -17.3048 2.8115
33.4396 16.8550 -10.0109 181.5660 67.5066 -150.9930 0.0000 0.0000 0.0000 -9.6790 -21.0856 -38.8906 1.7503 8.3253 23.7065 -0.2893 -19.2765 -10.9157 0.0359 1.2234 3.3638 0.0000 0.0000 0.0000 22.7649 7.7912 -9.6933 -1.1114 -6.6976 18.8227 0.0392 -5.8530 2.8540 -0.6720 5.2422 -14.6005 -6.1297 1.0239 -13.3141 -0.4156 2.4475 -4.8246 3.3841 1.3928 2.1413 -6.0625 -0.2809 2.5878 7.9005 1.3676 -20.7340 3.4587 0.8454 -6.7771 -0.0000 0.0000 0.0000 68.6326 -56.7759 -79.3578 25.9802 -37.1891 -8.8757 -0.0000 -0.0000 20.0925 34.2386 18.5410 12.2113 -7.1250 0.0000 -0.0000 6.2890 51.9548 1.0805 -0.0000 0.0000 0.0000 -48.8240 62.6165 -70.2561 -42.0559 49.2419 -19.9829 0.0000 -0.0000 -2.8009 -19.9796 12.1906 -4.3901 7.1250 -0.0000 -0.0000 5.0335 -17.0655 3.3478
33.4397 16.8573 -10.0082 181.0140 67.7395 -151.2620 0.0000 0.0000 0.0000 -9.8689 -21.0941 -39.1586 1.7449 8.3133 23.6697 -0.2860 -19.1905 -10.8734 0.0334 1.1792 3.2421 0.0000 0.0000 0.0000 22.4177 8.1699 -9.9158 -1.1215 -6.7270 18.9090 0.0465 -6.0761 2.8153 -0.6280 5.0707 -14.1103 -6.4124 0.9852 -13.4215 -0.4923 2.4462 -4.8300 3.4664 1.3938 2.1839 -5.7373 -0.3324 2.7755 7.5314 1.3037 -21.2604 3.2937 0.8251 -6.9749 0.0000 -0.0000 0.0000 70.6170 -56.8824 -82.8883 24.8977 -36.0993 -8.2296 -0.0000 -0.0000 21.9246 33.5583 18.6115 11.9535 -7.1250 0.0000 -0.0000 5.5664 51.9004 0.9482 0.0000 -0.0000 0.0000 -50.1367 62.5816 -71.6970 -41.0627 48.6871 -19.2337 0.0000 -0.0000 -2.3806 -20.1824 13.2649 -4.8211 7.1250 -0.0000 -0.0000 4.9251 -15.9153 3.3985
33.4398 16.8628 -10.0060 180.2650 68.0152 -151.6350 0.0000 0.0000 0.0000 -10.1217 -21.1447 -39.4842 1.7315 8.2828 23.5765 -0.2880 -19.0802 -10.7577 0.0353 1.2136 3.3367 0.0000 0.0000 0.0000 21.9551 8.2585 -10.3781 -1.1364 -6.7701 19.0359 0.0497 -6.0094 2.6318 -0.5683 4.8281 -13.4189 -6.7162 0.9098 -13.5758 -0.6243 2.4081 -4.8652 3.4982 1.3786 2.2263 -5.7422 -0.3471 2.1006 7.5719 1.3112 -20.9255 3.3003 0.8427 -6.7474 -0.0000 0.0000 0.0000 70.7919 -56.5329 -82.7788 24.6130 -35.8058 -8.0624 -0.0000 -0.0000 21.5170 34.4555 18.8615 12.5066 -7.1250 0.0000 -0.0000 6.4960 52.3695 1.1824 -0.0000 0.0000 0.0000 -51.8786 62.5948 -73.6316 -39.5682 47.8120 -18.1186 0.0000 -0.0000 -2.1684 -20.9225 14.7804 -5.5706 7.1250 -0.0000 -0.0000 4.4806 -14.2407 3.2508
33.4333 16.8651 -10.0022 181.9410 67.7469 -150.4040 0.0000 0.0000 0.0000 -9.4616 -21.0066 -39.2362 1.7397 8.3014 23.6335 -0.3000 -19.1502 -10.7007 0.0383 1.2633 3.4735 0.0000 0.0000 0.0000 22.7736 7.9166 -10.1095 -1.1282 -6.7463 18.9660 0.0481 -5.8351 2.5094 -0.5555 4.7742 -13.2658 -5.8967 0.9718 -13.0131 -0.4537 2.3215 -4.7895 3.1852 1.3266 2.0402 -6.0969 -0.2511 1.6596 8.0505 1.5201 -20.6730 3.5005 0.9470 -6.6045 0.0000 0.0000 0.0000 70.7714 -56.3432 -83.0404 24.3197 -35.5005 -7.8914 -0.0000 -0.0000 22.1499 34.2200 18.9351 12.4453 -7.1250 0.0000 -0.0000 6.2397 52.4066 1.1411 0.0000 0.0000 0.0000 -53.5176 62.7114 -75.4260 -38.3160 47.0400 -17.1965 0.0000 -0.0000 -2.1043 -21.2191 15.3168 -5.8558 7.1250 -0.0000 -0.0000 4.3066 -13.6405 3.1787
